<svg width="567" height="567" viewBox="0 0 567 567" fill="none" xmlns="http://www.w3.org/2000/svg" aria-label="Husqvarna logo with name">
<g clip-path="url(#clip0_1102_1007)">
<path d="M566.93 0H0V566.93H566.93V0Z" fill="#273A60"/>
<path d="M283.11 308.88C303.44 308.88 309.91 308.88 319.98 306.15C323.45 304.95 329.71 303.24 334.23 296.22C342.56 282.18 342.56 255.81 342.56 243.14C342.56 230.47 342.56 208.03 334.23 194.16C329.71 186.97 323.54 184.99 319.98 184.06C309.7 181.37 303.09 181.53 283.11 181.49H283.13C263.15 181.53 256.55 181.37 246.27 184.06C242.71 184.99 236.54 186.97 232.02 194.16C223.69 208.03 223.69 230.46 223.69 243.14C223.69 255.82 223.69 282.18 232.02 296.22C236.54 303.24 242.79 304.95 246.27 306.15C256.33 308.89 262.82 308.88 283.13 308.88H283.11ZM283.15 129.07C292.01 129.07 297.78 130.61 300.2 131.12C298.99 142.25 299.34 151.17 300.2 153.73C303.15 162.3 319.94 166.28 326.72 162.34C334.19 157.89 332.48 144.39 332.48 135.49C332.48 135.49 343.49 138.05 350.23 140.54C355.71 142.57 363.79 146.52 363.79 146.52C365.39 157.79 363.87 174.45 352.58 180.1C361.09 188.49 363.94 198.42 367.6 216.74C370.54 233.18 369.86 244.65 369.67 254.23C368.81 267.25 368.81 274.27 365.68 286.09C361.17 299.61 358.5 305.96 349.35 315.36C330.79 334.46 300.55 333.34 283.14 333.33C265.73 333.34 235.49 334.46 216.93 315.36C207.78 305.96 205.12 299.61 200.6 286.09C197.48 274.27 197.48 267.25 196.61 254.23C196.43 244.65 195.74 233.18 198.69 216.74C202.33 198.41 205.19 188.49 213.7 180.1C202.41 174.45 200.89 157.79 202.49 146.52C202.49 146.52 210.58 142.56 216.05 140.54C222.79 138.05 233.8 135.49 233.8 135.49C233.8 144.39 232.09 157.89 239.56 162.34C246.34 166.28 263.12 162.29 266.07 153.73C266.94 151.16 267.29 142.24 266.07 131.12C268.51 130.61 274.27 129.07 283.14 129.07" fill="white"/>
<path d="M283.15 252.12C300.52 252.12 300.14 252.13 300.14 257.61V292.12H323.76V196.55H300.14V225.24C300.14 230.89 300.51 230.87 283.15 230.87H283.16C265.8 230.87 266.17 230.89 266.17 225.24V196.55H242.56V292.12H266.17V257.61C266.17 252.13 265.8 252.12 283.16 252.12H283.15Z" fill="white"/>
<path d="M468.38 358.19H469.38C470.37 358.19 471.31 358.1 471.31 357.09C471.31 356.08 470.53 356.07 469.5 356.07H468.37V358.2L468.38 358.19ZM472.19 357.02C472.19 357.6 471.9 358.11 471.43 358.4C471.14 358.58 470.85 358.64 470.4 358.7C471.23 359 471.44 359.19 472.42 361.38H471.51C470.49 359.18 470.23 358.8 468.73 358.8H468.38V361.38H467.62V355.44H470.14C472.19 355.44 472.19 356.85 472.19 357.01M469.95 353.4C467.15 353.4 464.9 355.61 464.9 358.35C464.9 361.09 467.15 363.3 469.95 363.3C472.75 363.3 475 361.09 475 358.35C475 355.61 472.74 353.4 469.95 353.4ZM469.95 364C466.77 364 464.19 361.48 464.19 358.35C464.19 355.22 466.77 352.7 469.95 352.7C473.13 352.7 475.71 355.23 475.71 358.35C475.71 361.47 473.13 364 469.95 364Z" fill="white"/>
<path d="M191.4 363.69H181.03V388.39C181.03 395.38 178.19 398.92 172.34 398.92C170.07 398.92 168.4 398.03 167.21 396.87C165.72 395.4 164.99 392.95 164.99 389.38V363.69H154.68V390.23C154.68 396.07 156.03 400.25 158.83 403C161.5 405.63 164.75 406.91 170.14 406.91C173.91 406.91 178.52 404.39 181.16 401.07V405.8H191.4V363.68V363.69Z" fill="white"/>
<path d="M352.83 375.04C352.83 371.89 351.77 369.24 349.67 367.17C346.7 364.24 342.47 362.54 336.34 362.56C330.21 362.59 319.87 363.83 318.67 375.3H329.04C328.9 369.95 335.8 370.42 335.8 370.42C338.01 370.42 340.02 371.1 341.49 372.26C342.39 372.96 342.98 374.05 343.06 375.83C343.18 378.68 341.78 380.05 332.08 380.99C324.58 381.7 315.66 383.7 315.66 394.31C315.66 397.69 316.83 400.64 319.04 402.82C321.73 405.46 325.77 406.92 330.44 406.92C336.63 406.92 340.2 405.4 343.38 401.89L343.88 405.8H353.84V404.23C352.55 403.23 352.84 399.05 352.84 399.05V375.04H352.83ZM325.95 393.99C325.68 390.82 327.55 388.55 332.44 387.72C333.72 387.47 335.04 387.35 336.31 387.16C338.25 386.87 340.56 386.34 342.53 385.03V391.48C342.53 396.7 337.26 398.66 333.41 398.6C329.56 398.55 326.23 397.15 325.95 393.99Z" fill="white"/>
<path d="M275.78 417.21V363.73L265.94 363.7V368.97C263.29 365.37 259.59 362.58 254.12 362.58C241.79 362.58 234.63 371.16 234.63 384.99C234.63 392.03 236.89 398.31 240.84 402.2C244.03 405.35 247.65 406.94 252.59 406.94C258.19 406.94 262.29 404.4 265.41 400.63V417.25L275.78 417.22V417.21ZM255.38 398.6C252.47 398.6 250.58 397.69 248.75 395.89C246.28 393.46 244.93 389.49 244.93 384.72C244.93 379.95 246.41 376.09 249 373.54C250.86 371.7 252.68 370.77 255.38 370.77C261.42 370.77 264.61 374.59 265.54 381.51C265.67 382.55 265.73 386.39 265.67 387.11C264.99 394.53 261.76 398.61 255.38 398.61" fill="white"/>
<path d="M102.69 405.81H113.93V380.82H137.5V405.81H148.75V349.61H137.5V371.12H113.93V349.61H102.69V405.81Z" fill="white"/>
<path d="M214.43 398.8C210 398.91 206.55 397.03 205.9 393.24H195.46C195.95 403.89 206.8 407.08 214.3 406.93C221.8 406.77 225.19 405.03 228.56 401.72C230.91 399.4 232.1 396.48 232.1 393C232.1 384.79 225.77 382.09 218.57 380.41L216.31 379.9C210.72 378.82 206.12 377.72 206.39 374.53C206.66 371.34 210.16 370.65 212.91 370.57C215.65 370.49 217.95 370.92 219.59 374.17H230.35C229.28 366 221.66 362.47 213.58 362.58C205.63 362.69 196.19 365.8 196.19 374.87C196.19 383.41 202.19 386 209.4 387.53C210.37 387.75 211.35 387.95 212.3 388.15C217.68 389.27 221.73 390.33 221.81 393.83C221.9 397.33 218.9 398.7 214.46 398.81" fill="white"/>
<path d="M318.39 363.69H307.66L298.47 396.09L288.96 363.69H277.76L292.59 405.81H303.69L318.39 363.69Z" fill="white"/>
<path d="M377.43 362.32C374.07 362.82 370.06 366.57 368.34 371.06V363.7H358.56V405.81H368.93V385.71C368.93 381.14 369.23 377.68 371.37 374.97C372.99 372.93 375.84 370.89 378.68 370.97C381.52 371.04 383.17 371.62 383.17 371.62V362.52C383.17 362.52 380.43 361.88 377.43 362.32Z" fill="white"/>
<path d="M423.72 377.02C423.72 372.61 422.43 369.09 419.88 366.58C417.22 363.96 413.45 362.58 408.6 362.58C403.75 362.58 399.72 365.22 396.64 370V363.69H386.87V405.81H397.18V380.97C397.18 377.94 397.83 375.13 399.76 373.24C401.47 371.56 403.91 370.62 406.87 370.67C411.63 370.76 413.23 373.46 413.42 379.48V405.82H423.72V377.03V377.02Z" fill="white"/>
<path d="M464.21 375.07C464.21 371.92 463.14 369.27 461.04 367.2C458.07 364.27 453.13 362.56 447.02 362.59C440.89 362.62 430.55 363.86 429.35 375.32H439.72C439.58 369.97 446.49 370.45 446.49 370.45C448.69 370.45 451.41 371.13 452.87 372.29C453.78 373 454.37 374.08 454.45 375.86C454.57 378.71 453.17 380.08 443.46 381.01C435.96 381.73 427.04 383.73 427.04 394.34C427.04 397.71 428.21 400.67 430.42 402.84C433.11 405.49 437.15 406.94 441.83 406.94C448 406.94 451.58 405.41 454.76 401.91L455.26 405.82H465.22V404.24C463.93 403.24 464.22 399.06 464.22 399.06V375.05L464.21 375.07ZM437.32 394.01C437.05 390.84 438.92 388.57 443.81 387.74C445.09 387.49 446.42 387.37 447.68 387.18C449.62 386.9 451.93 386.36 453.89 385.06V391.51C453.89 396.73 448.62 398.68 444.78 398.63C440.93 398.57 437.6 397.18 437.32 394.01Z" fill="white"/>
</g>
<defs>
<clipPath id="clip0_1102_1007">
<rect width="566.93" height="566.93" fill="white"/>
</clipPath>
</defs>
</svg>
